Synopsis:
Ray Ferrier is a dock worker who is finishing a night of work in the morning, because he works the night shift. But when he gets home his young daughter Rachel and teenage son Robbie are staying with him at his house in Bayonne, New Jersey, while his pregnant ex-wife Mary Anne and her new husband Tim visit her parents in Boston for the weekend. But then the unthinkable and, ultimately, the unexpected happens to him in an extraordinary sense! Witnessing, and barely escaping the horror, first-hand, it's up to Ray to protect his two kids from terrorist and races up to Boston before one of them gets murdered by a large tripod machine in its path!

General
Complete name                    : War of The Worlds 2005 BRRip 720p H264 AC3 - HIS
Format                           : Matroska
File size                        : 2.16 GiB (1/2 DVD)
Duration                         : 1h 56mn
Overall bit rate                 : 2 659 Kbps

Video                            
ID:                              : 1
Format                           : AVC
Format/Info                      : Advanced Video Codec
Format profile                   : High@L4.0
Format settings, CABAC           : Yes
Format settings, ReFrames        : 4 frames
Muxing mode                      : Container profile=Unknown@4.0
Codec ID                         : V_MPEG4/ISO/AVC
Duration                         : 1h 56mn
Bit rate                         : 2 222 Kbps
Nominal bit rate                 : 2 275 Kbps
Width                            : 1 280 pixels
Height                           : 688 pixels
Display aspect ratio             : 1.860
Frame rate                       : 23.976 fps
Resolution                       : 24 bits
Colorimetry                      : 4:2:0
Scan type                        : Progressive
Bits/(Pixel*Frame)               : 0.105
Stream size                      : 1.81 GiB (83%)
Writing library                  : x264 core 104 r1683 62997d6

Audio
ID                               : 2
Format                           : AC-3
Format/Info                      : Audio Coding 3
Codec ID                         : A_AC3
Duration                         : 1h 56mn
Bit rate mode                    : Constant
Bit rate                         : 384 Kbps
Channel(s)                       : 6 channels
Channel positions                : Front: L C R, Surround: L R, LFE
Sampling rate                    : 48.0 KHz
Stream size                      : 320 MiB (14%)

"Divx Plus HD Compatible"